ffmpeg started on 2025-06-04 at 21:33:30
Report written to "D:\Convert\FFMetrics\reports\ssim_report-6.txt"
Log level: 32
Command line:
ffmpeg -hide_banner -nostdin -i "G:\\\xc0\xed\xe8\xec\xe5\\\xce\xed\xe3\xee\xe8\xed\xe3\xe8\\!_36_\xce\xf1\xe5\xed\xfc_2024\\DreamCast\\\xc5\xf1\xeb\xe8 \xe1\xfb \xec\xee\xff \xe6\xe5\xed\xe0 \xf1\xf2\xe0\xeb\xe0 \xec\xeb\xe0\xe4\xf8\xe5\xea\xeb\xe0\xf1\xf1\xed\xe8\xf6\xe5\xe9\\[DC] Tsuma Shougakusei ni Naru - 11_Telegram_HEVC.mkv" -i "G:\\\xc0\xed\xe8\xec\xe5\\\xce\xed\xe3\xee\xe8\xed\xe3\xe8\\!_36_\xce\xf1\xe5\xed\xfc_2024\\DreamCast\\\xc5\xf1\xeb\xe8 \xe1\xfb \xec\xee\xff \xe6\xe5\xed\xe0 \xf1\xf2\xe0\xeb\xe0 \xec\xeb\xe0\xe4\xf8\xe5\xea\xeb\xe0\xf1\xf1\xed\xe8\xf6\xe5\xe9\\[DC] Tsuma Shougakusei ni Naru - 11_Telegram.mp4" -lavfi "[0:v]settb=AVTB,setpts=PTS-STARTPTS,format=pix_fmts=yuv420p10,fps=24000/1001,scale=1920:1080:flags=bicubic[main];[1:v]settb=AVTB,setpts=PTS-STARTPTS,format=pix_fmts=yuv420p,fps=24000/1001,scale=1920:1080:flags=bicubic[ref];[main][ref]ssim=eof_action=endall:stats_file='D\\:/Convert/FFMetrics/logs/ssim_logfile-6.txt'" -f null -
Input #0, matroska,webm, from 'G:\Аниме\Онгоинги\!_36_Осень_2024\DreamCast\Если бы моя жена стала младшеклассницей\[DC] Tsuma Shougakusei ni Naru - 11_Telegram_HEVC.mkv':
  Metadata:
    COMPATIBLE_BRANDS: isomiso2avc1mp41
    MAJOR_BRAND     : isom
    MINOR_VERSION   : 512
    ENCODER         : Lavf61.7.100
  Duration: 00:23:46.65, start: -0.021000, bitrate: 809 kb/s
  Stream #0:0: Video: hevc (Main 10), yuv420p10le(tv, bt709, progressive), 1920x1080 [SAR 1:1 DAR 16:9], 23.98 fps, 23.98 tbr, 1k tbn (default)
      Metadata:
        HANDLER_NAME    : VideoHandler
        VENDOR_ID       : [0][0][0][0]
        ENCODER         : Lavc61.19.100 libx265
        BPS             : 611858
        DURATION        : 00:23:46.549708333
        NUMBER_OF_FRAMES: 34203
        NUMBER_OF_BYTES : 109105683
        _STATISTICS_WRITING_APP: mkvpropedit v66.0.0 ('Josie') 64-bit
        _STATISTICS_WRITING_DATE_UTC: 2025-05-30 16:11:31
        _STATISTICS_TAGS: BPS DURATION NUMBER_OF_FRAMES NUMBER_OF_BYTES
  Stream #0:1: Audio: aac (LC), 48000 Hz, stereo, fltp (default)
      Metadata:
        HANDLER_NAME    : SoundHandler
        VENDOR_ID       : [0][0][0][0]
        ENCODER         : Lavc61.19.100 aac
        BPS             : 193215
        DURATION        : 00:23:46.645000000
        NUMBER_OF_FRAMES: 66875
        NUMBER_OF_BYTES : 34456196
        _STATISTICS_WRITING_APP: mkvpropedit v66.0.0 ('Josie') 64-bit
        _STATISTICS_WRITING_DATE_UTC: 2025-05-30 16:11:31
        _STATISTICS_TAGS: BPS DURATION NUMBER_OF_FRAMES NUMBER_OF_BYTES
Input #1, mov,mp4,m4a,3gp,3g2,mj2, from 'G:\Аниме\Онгоинги\!_36_Осень_2024\DreamCast\Если бы моя жена стала младшеклассницей\[DC] Tsuma Shougakusei ni Naru - 11_Telegram.mp4':
  Metadata:
    major_brand     : isom
    minor_version   : 512
    compatible_brands: isomiso2avc1mp41
    encoder         : Lavf61.1.100
  Duration: 00:23:46.62, start: 0.000000, bitrate: 3419 kb/s
  Stream #1:0[0x1](und): Video: h264 (High) (avc1 / 0x31637661), yuv420p(tv, bt709, progressive), 1920x1080 [SAR 1:1 DAR 16:9], 3272 kb/s, 23.98 fps, 23.98 tbr, 24k tbn (default)
      Metadata:
        handler_name    : VideoHandler
        vendor_id       : [0][0][0][0]
        encoder         : Lavc61.3.100 h264_qsv
  Stream #1:1[0x2](und): Audio: aac (HE-AACv2) (mp4a / 0x6134706D), 48000 Hz, stereo, fltp, 144 kb/s (default)
      Metadata:
        handler_name    : SoundHandler
        vendor_id       : [0][0][0][0]
Stream mapping:
  Stream #0:0 (hevc) -> settb:default
  Stream #1:0 (h264) -> settb:default
  ssim:default -> Stream #0:0 (wrapped_avframe)
  Stream #0:1 -> #0:1 (aac (native) -> pcm_s16le (native))
Output #0, null, to 'pipe:':
  Metadata:
    COMPATIBLE_BRANDS: isomiso2avc1mp41
    MAJOR_BRAND     : isom
    MINOR_VERSION   : 512
    encoder         : Lavf61.7.100
  Stream #0:0: Video: wrapped_avframe, yuv420p10le(tv, bt709, progressive), 1920x1080 [SAR 1:1 DAR 16:9], q=2-31, 200 kb/s, 23.98 fps, 23.98 tbn
      Metadata:
        encoder         : Lavc61.19.100 wrapped_avframe
  Stream #0:1: Audio: pcm_s16le, 48000 Hz, stereo, s16, 1536 kb/s (default)
      Metadata:
        HANDLER_NAME    : SoundHandler
        VENDOR_ID       : [0][0][0][0]
        _STATISTICS_TAGS: BPS DURATION NUMBER_OF_FRAMES NUMBER_OF_BYTES
        BPS             : 193215
        DURATION        : 00:23:46.645000000
        NUMBER_OF_FRAMES: 66875
        NUMBER_OF_BYTES : 34456196
        _STATISTICS_WRITING_APP: mkvpropedit v66.0.0 ('Josie') 64-bit
        _STATISTICS_WRITING_DATE_UTC: 2025-05-30 16:11:31
        encoder         : Lavc61.19.100 pcm_s16le
frame=  179 fps=0.0 q=-0.0 size=N/A time=00:00:07.46 bitrate=N/A speed=14.8x    frame=  377 fps=368 q=-0.0 size=N/A time=00:00:15.72 bitrate=N/A speed=15.4x    frame=  506 fps=327 q=-0.0 size=N/A time=00:00:21.10 bitrate=N/A speed=13.6x    frame=  644 fps=314 q=-0.0 size=N/A time=00:00:26.86 bitrate=N/A speed=13.1x    frame=  864 fps=337 q=-0.0 size=N/A time=00:00:36.03 bitrate=N/A speed=14.1x    frame= 1100 fps=356 q=-0.0 size=N/A time=00:00:45.87 bitrate=N/A speed=14.9x    frame= 1318 fps=366 q=-0.0 size=N/A time=00:00:54.97 bitrate=N/A speed=15.3x    frame= 1503 fps=365 q=-0.0 size=N/A time=00:01:02.68 bitrate=N/A speed=15.2x    frame= 1682 fps=363 q=-0.0 size=N/A time=00:01:10.15 bitrate=N/A speed=15.1x    frame= 1891 fps=367 q=-0.0 size=N/A time=00:01:18.87 bitrate=N/A speed=15.3x    frame= 2055 fps=363 q=-0.0 size=N/A time=00:01:25.71 bitrate=N/A speed=15.1x    frame= 2188 fps=354 q=-0.0 size=N/A time=00:01:31.25 bitrate=N/A speed=14.8x    frame= 2435 fps=363 q=-0.0 size=N/A time=00:01:41.55 bitrate=N/A speed=15.2x    frame= 2705 fps=375 q=-0.0 size=N/A time=00:01:52.82 bitrate=N/A speed=15.7x    frame= 2977 fps=385 q=-0.0 size=N/A time=00:02:04.16 bitrate=N/A speed=16.1x    frame= 3247 fps=394 q=-0.0 size=N/A time=00:02:15.42 bitrate=N/A speed=16.4x    frame= 3534 fps=404 q=-0.0 size=N/A time=00:02:27.39 bitrate=N/A speed=16.8x    frame= 3801 fps=410 q=-0.0 size=N/A time=00:02:38.53 bitrate=N/A speed=17.1x    frame= 4063 fps=415 q=-0.0 size=N/A time=00:02:49.46 bitrate=N/A speed=17.3x    frame= 4332 fps=421 q=-0.0 size=N/A time=00:03:00.68 bitrate=N/A speed=17.5x    frame= 4620 fps=427 q=-0.0 size=N/A time=00:03:12.69 bitrate=N/A speed=17.8x    frame= 4888 fps=431 q=-0.0 size=N/A time=00:03:23.87 bitrate=N/A speed=  18x    frame= 5171 fps=436 q=-0.0 size=N/A time=00:03:35.67 bitrate=N/A speed=18.2x    frame= 5443 fps=440 q=-0.0 size=N/A time=00:03:47.01 bitrate=N/A speed=18.3x    frame= 5700 fps=442 q=-0.0 size=N/A time=00:03:57.73 bitrate=N/A speed=18.4x    frame= 5968 fps=445 q=-0.0 size=N/A time=00:04:08.91 bitrate=N/A speed=18.6x    frame= 6251 fps=448 q=-0.0 size=N/A time=00:04:20.71 bitrate=N/A speed=18.7x    frame= 6522 fps=452 q=-0.0 size=N/A time=00:04:32.02 bitrate=N/A speed=18.8x    frame= 6803 fps=455 q=-0.0 size=N/A time=00:04:43.74 bitrate=N/A speed=  19x    frame= 7107 fps=459 q=-0.0 size=N/A time=00:04:56.42 bitrate=N/A speed=19.1x    frame= 7376 fps=461 q=-0.0 size=N/A time=00:05:07.64 bitrate=N/A speed=19.2x    frame= 7651 fps=463 q=-0.0 size=N/A time=00:05:19.11 bitrate=N/A speed=19.3x    frame= 7933 fps=466 q=-0.0 size=N/A time=00:05:30.87 bitrate=N/A speed=19.4x    frame= 8214 fps=468 q=-0.0 size=N/A time=00:05:42.59 bitrate=N/A speed=19.5x    frame= 8500 fps=470 q=-0.0 size=N/A time=00:05:54.52 bitrate=N/A speed=19.6x    frame= 8737 fps=470 q=-0.0 size=N/A time=00:06:04.40 bitrate=N/A speed=19.6x    frame= 9005 fps=472 q=-0.0 size=N/A time=00:06:15.58 bitrate=N/A speed=19.7x    frame= 9277 fps=473 q=-0.0 size=N/A time=00:06:26.92 bitrate=N/A speed=19.7x    frame= 9555 fps=475 q=-0.0 size=N/A time=00:06:38.52 bitrate=N/A speed=19.8x    frame= 9829 fps=476 q=-0.0 size=N/A time=00:06:49.95 bitrate=N/A speed=19.9x    frame=10114 fps=478 q=-0.0 size=N/A time=00:07:01.83 bitrate=N/A speed=19.9x    frame=10387 fps=479 q=-0.0 size=N/A time=00:07:13.22 bitrate=N/A speed=  20x    frame=10676 fps=481 q=-0.0 size=N/A time=00:07:25.27 bitrate=N/A speed=20.1x    frame=10952 fps=482 q=-0.0 size=N/A time=00:07:36.78 bitrate=N/A speed=20.1x    frame=11232 fps=484 q=-0.0 size=N/A time=00:07:48.46 bitrate=N/A speed=20.2x    frame=11520 fps=485 q=-0.0 size=N/A time=00:08:00.48 bitrate=N/A speed=20.2x    frame=11800 fps=486 q=-0.0 size=N/A time=00:08:12.15 bitrate=N/A speed=20.3x    frame=12065 fps=487 q=-0.0 size=N/A time=00:08:23.21 bitrate=N/A speed=20.3x    frame=12329 fps=487 q=-0.0 size=N/A time=00:08:34.22 bitrate=N/A speed=20.3x    frame=12613 fps=489 q=-0.0 size=N/A time=00:08:46.06 bitrate=N/A speed=20.4x    frame=12896 fps=490 q=-0.0 size=N/A time=00:08:57.87 bitrate=N/A speed=20.4x    frame=13193 fps=491 q=-0.0 size=N/A time=00:09:10.25 bitrate=N/A speed=20.5x    frame=13468 fps=492 q=-0.0 size=N/A time=00:09:21.72 bitrate=N/A speed=20.5x    frame=13765 fps=494 q=-0.0 size=N/A time=00:09:34.11 bitrate=N/A speed=20.6x    frame=14042 fps=495 q=-0.0 size=N/A time=00:09:45.66 bitrate=N/A speed=20.6x    frame=14322 fps=495 q=-0.0 size=N/A time=00:09:57.34 bitrate=N/A speed=20.7x    frame=14605 fps=496 q=-0.0 size=N/A time=00:10:09.15 bitrate=N/A speed=20.7x    frame=14887 fps=497 q=-0.0 size=N/A time=00:10:20.91 bitrate=N/A speed=20.7x    frame=15156 fps=498 q=-0.0 size=N/A time=00:10:32.13 bitrate=N/A speed=20.8x    frame=15411 fps=497 q=-0.0 size=N/A time=00:10:42.76 bitrate=N/A speed=20.7x    frame=15704 fps=499 q=-0.0 size=N/A time=00:10:54.98 bitrate=N/A speed=20.8x    frame=15944 fps=498 q=-0.0 size=N/A time=00:11:04.99 bitrate=N/A speed=20.8x    frame=16183 fps=497 q=-0.0 size=N/A time=00:11:14.96 bitrate=N/A speed=20.7x    frame=16446 fps=498 q=-0.0 size=N/A time=00:11:25.93 bitrate=N/A speed=20.8x    frame=16707 fps=498 q=-0.0 size=N/A time=00:11:36.82 bitrate=N/A speed=20.8x    frame=16963 fps=498 q=-0.0 size=N/A time=00:11:47.49 bitrate=N/A speed=20.8x    frame=17211 fps=497 q=-0.0 size=N/A time=00:11:57.84 bitrate=N/A speed=20.7x    frame=17453 fps=497 q=-0.0 size=N/A time=00:12:07.93 bitrate=N/A speed=20.7x    frame=17731 fps=498 q=-0.0 size=N/A time=00:12:19.53 bitrate=N/A speed=20.8x    frame=18002 fps=498 q=-0.0 size=N/A time=00:12:30.83 bitrate=N/A speed=20.8x    frame=18264 fps=498 q=-0.0 size=N/A time=00:12:41.76 bitrate=N/A speed=20.8x    frame=18511 fps=498 q=-0.0 size=N/A time=00:12:52.06 bitrate=N/A speed=20.8x    frame=18771 fps=498 q=-0.0 size=N/A time=00:13:02.90 bitrate=N/A speed=20.8x    frame=19025 fps=498 q=-0.0 size=N/A time=00:13:13.50 bitrate=N/A speed=20.8x    frame=19275 fps=498 q=-0.0 size=N/A time=00:13:23.92 bitrate=N/A speed=20.8x    frame=19546 fps=498 q=-0.0 size=N/A time=00:13:35.23 bitrate=N/A speed=20.8x    frame=19795 fps=498 q=-0.0 size=N/A time=00:13:45.61 bitrate=N/A speed=20.8x    frame=20041 fps=498 q=-0.0 size=N/A time=00:13:55.87 bitrate=N/A speed=20.8x    frame=20284 fps=497 q=-0.0 size=N/A time=00:14:06.01 bitrate=N/A speed=20.7x    frame=20538 fps=497 q=-0.0 size=N/A time=00:14:16.60 bitrate=N/A speed=20.7x    frame=20788 fps=497 q=-0.0 size=N/A time=00:14:27.03 bitrate=N/A speed=20.7x    frame=21047 fps=497 q=-0.0 size=N/A time=00:14:37.83 bitrate=N/A speed=20.7x    frame=21307 fps=497 q=-0.0 size=N/A time=00:14:48.67 bitrate=N/A speed=20.7x    frame=21589 fps=498 q=-0.0 size=N/A time=00:15:00.44 bitrate=N/A speed=20.8x    frame=21868 fps=498 q=-0.0 size=N/A time=00:15:12.07 bitrate=N/A speed=20.8x    frame=22142 fps=499 q=-0.0 size=N/A time=00:15:23.50 bitrate=N/A speed=20.8x    frame=22433 fps=499 q=-0.0 size=N/A time=00:15:35.64 bitrate=N/A speed=20.8x    frame=22725 fps=500 q=-0.0 size=N/A time=00:15:47.82 bitrate=N/A speed=20.9x    frame=23010 fps=501 q=-0.0 size=N/A time=00:15:59.70 bitrate=N/A speed=20.9x    frame=23270 fps=501 q=-0.0 size=N/A time=00:16:10.55 bitrate=N/A speed=20.9x    frame=23529 fps=501 q=-0.0 size=N/A time=00:16:21.35 bitrate=N/A speed=20.9x    frame=23808 fps=501 q=-0.0 size=N/A time=00:16:32.99 bitrate=N/A speed=20.9x    frame=24067 fps=501 q=-0.0 size=N/A time=00:16:43.79 bitrate=N/A speed=20.9x    frame=24334 fps=501 q=-0.0 size=N/A time=00:16:54.93 bitrate=N/A speed=20.9x    frame=24581 fps=501 q=-0.0 size=N/A time=00:17:05.23 bitrate=N/A speed=20.9x    frame=24859 fps=502 q=-0.0 size=N/A time=00:17:16.82 bitrate=N/A speed=20.9x    frame=25143 fps=502 q=-0.0 size=N/A time=00:17:28.67 bitrate=N/A speed=20.9x    frame=25394 fps=502 q=-0.0 size=N/A time=00:17:39.14 bitrate=N/A speed=20.9x    frame=25670 fps=502 q=-0.0 size=N/A time=00:17:50.65 bitrate=N/A speed=  21x    frame=25961 fps=503 q=-0.0 size=N/A time=00:18:02.79 bitrate=N/A speed=  21x    frame=26234 fps=503 q=-0.0 size=N/A time=00:18:14.17 bitrate=N/A speed=  21x    frame=26527 fps=504 q=-0.0 size=N/A time=00:18:26.39 bitrate=N/A speed=  21x    frame=26789 fps=504 q=-0.0 size=N/A time=00:18:37.32 bitrate=N/A speed=  21x    frame=27050 fps=504 q=-0.0 size=N/A time=00:18:48.21 bitrate=N/A speed=  21x    frame=27336 fps=504 q=-0.0 size=N/A time=00:19:00.13 bitrate=N/A speed=  21x    frame=27602 fps=505 q=-0.0 size=N/A time=00:19:11.23 bitrate=N/A speed=  21x    frame=27886 fps=505 q=-0.0 size=N/A time=00:19:23.07 bitrate=N/A speed=21.1x    frame=28168 fps=505 q=-0.0 size=N/A time=00:19:34.84 bitrate=N/A speed=21.1x    frame=28464 fps=506 q=-0.0 size=N/A time=00:19:47.18 bitrate=N/A speed=21.1x    frame=28732 fps=506 q=-0.0 size=N/A time=00:19:58.36 bitrate=N/A speed=21.1x    frame=29015 fps=506 q=-0.0 size=N/A time=00:20:10.16 bitrate=N/A speed=21.1x    frame=29279 fps=507 q=-0.0 size=N/A time=00:20:21.17 bitrate=N/A speed=21.1x    frame=29559 fps=507 q=-0.0 size=N/A time=00:20:32.85 bitrate=N/A speed=21.1x    frame=29839 fps=507 q=-0.0 size=N/A time=00:20:44.53 bitrate=N/A speed=21.2x    frame=30142 fps=508 q=-0.0 size=N/A time=00:20:57.17 bitrate=N/A speed=21.2x    frame=30414 fps=508 q=-0.0 size=N/A time=00:21:08.51 bitrate=N/A speed=21.2x    frame=30702 fps=508 q=-0.0 size=N/A time=00:21:20.52 bitrate=N/A speed=21.2x    frame=30982 fps=509 q=-0.0 size=N/A time=00:21:32.20 bitrate=N/A speed=21.2x    frame=31263 fps=509 q=-0.0 size=N/A time=00:21:43.92 bitrate=N/A speed=21.2x    frame=31529 fps=509 q=-0.0 size=N/A time=00:21:55.02 bitrate=N/A speed=21.2x    frame=31784 fps=509 q=-0.0 size=N/A time=00:22:05.65 bitrate=N/A speed=21.2x    frame=32058 fps=509 q=-0.0 size=N/A time=00:22:17.08 bitrate=N/A speed=21.2x    frame=32313 fps=509 q=-0.0 size=N/A time=00:22:27.72 bitrate=N/A speed=21.2x    frame=32581 fps=509 q=-0.0 size=N/A time=00:22:38.89 bitrate=N/A speed=21.2x    frame=32836 fps=509 q=-0.0 size=N/A time=00:22:49.53 bitrate=N/A speed=21.2x    frame=33085 fps=509 q=-0.0 size=N/A time=00:22:59.92 bitrate=N/A speed=21.2x    frame=33287 fps=508 q=-0.0 size=N/A time=00:23:08.34 bitrate=N/A speed=21.2x    frame=33445 fps=506 q=-0.0 size=N/A time=00:23:14.93 bitrate=N/A speed=21.1x    frame=33593 fps=505 q=-0.0 size=N/A time=00:23:21.10 bitrate=N/A speed=  21x    frame=33746 fps=503 q=-0.0 size=N/A time=00:23:27.48 bitrate=N/A speed=  21x    frame=33946 fps=502 q=-0.0 size=N/A time=00:23:35.83 bitrate=N/A speed=20.9x    frame=34184 fps=502 q=-0.0 size=N/A time=00:23:45.75 bitrate=N/A speed=20.9x    [Parsed_ssim_10 @ 000001af85ef0740] SSIM Y:0.994771 (22.815723) U:0.995207 (23.194258) V:0.995350 (23.325847) All:0.994940 (22.958685)
[out#0/null @ 000001af84d44100] video:14697KiB audio:267500KiB subtitle:0KiB other streams:0KiB global headers:0KiB muxing overhead: unknown
frame=34203 fps=502 q=-0.0 Lsize=N/A time=00:23:46.55 bitrate=N/A speed=20.9x    
